<svg class="animated" id="freepik_stories-chat" xmlns="http://www.w3.org/2000/svg" viewBox="0 0 500 500" version="1.1" xmlns:xlink="http://www.w3.org/1999/xlink" xmlns:svgjs="http://svgjs.com/svgjs"><style>svg#freepik_stories-chat:not(.animated) .animable {opacity: 0;}svg#freepik_stories-chat.animated #freepik--speech-bubbles--inject-19 {animation: 3s Infinite  linear floating;animation-delay: 0s;}            @keyframes floating {                0% {                    opacity: 1;                    transform: translateY(0px);                }                50% {                    transform: translateY(-10px);                }                100% {                    opacity: 1;                    transform: translateY(0px);                }            }        </style><g id="freepik--Floor--inject-19" class="animable" style="transform-origin: 279.065px 366.092px;"><path d="M181.61,417c53.82,28.12,141.09,28.12,194.91,0s53.82-73.7,0-101.82-141.09-28.11-194.91,0S127.79,388.84,181.61,417Z" style="fill: rgb(245, 245, 245); transform-origin: 279.065px 366.092px;" id="el11f744aucu6" class="animable"></path></g><g id="freepik--Characters--inject-19" class="animable" style="transform-origin: 274.231px 245.252px;"><path d="M217.71,302.65c-.25-.34-.11-23.11-7.83-29.88s-14.53-1.4-10.06,6.71c3,5.35,11.29,14.82,11.3,23.89Z" style="fill: rgb(0, 123, 255); transform-origin: 208.054px 286.531px;" id="elbkpvyald1j" class="animable"></path><g id="elu7k9mhnxvm"><path d="M217.71,302.65c-.25-.34-.11-23.11-7.83-29.88s-14.53-1.4-10.06,6.71c3,5.35,11.29,14.82,11.3,23.89Z" style="fill: rgb(255, 255, 255); opacity: 0.6; transform-origin: 208.054px 286.531px;" class="animable"></path></g><path d="M215,303.18a.41.41,0,0,1-.41-.37c-2.32-21.83-11.06-29.65-11.15-29.73a.41.41,0,1,1,.54-.62c.37.32,9.08,8.07,11.43,30.26a.42.42,0,0,1-.37.46Z" style="fill: rgb(255, 255, 255); transform-origin: 209.356px 287.769px;" id="elno213ymp4y" class="animable"></path><path d="M216.22,326.75c-2.83-12.85-6.87-20.31-22.86-28.54-14.73-7.59-27.4-15.61-12.67-18.52,12.23-2.42,35.77,17,36.61,34Z" style="fill: rgb(0, 123, 255); transform-origin: 195.717px 303.117px;" id="el8a5eo1vs5ub" class="animable"></path><path d="M214.65,310.6a.41.41,0,0,1-.39-.26C209.43,297.46,194,285,180.63,283.13a.42.42,0,0,1-.35-.47.41.41,0,0,1,.47-.35c13.66,1.91,29.36,14.61,34.29,27.74a.42.42,0,0,1-.25.53Z" style="fill: rgb(255, 255, 255); transform-origin: 197.67px 296.453px;" id="ell8pztj86xh" class="animable"></path><path d="M333.93,346.24c-.42.56-.49,1.85-.92,3.6a8,8,0,0,0-.29,4,7.88,7.88,0,0,0,4.47,3.49c2.3.72,5.13.12,7.87-1.52s4.81-3.63,8.72-4.74,5.85-2,7.7-3.5c2.17-1.74,5.06-6.54.92-7.65s-13.15,2.81-21.34,3.17Z" style="fill: rgb(38, 50, 56); transform-origin: 348.545px 348.677px;" id="el8i4ddooi6k" class="animable"></path><path d="M333.93,341.12v6.14a3.93,3.93,0,0,0,3.26,2.58,3.86,3.86,0,0,0,2-.21,5.5,5.5,0,0,0,3.52-4.86l.24-3.65Z" style="fill: rgb(255, 168, 167); transform-origin: 338.44px 345.504px;" id="elcy4vygicnh" class="animable"></path><path d="M345.65,303.2c.05,7.63-2.14,40.61-2.14,40.61s-3.12,3.95-9.9,0L331.3,307Z" style="fill: rgb(0, 123, 255); transform-origin: 338.475px 324.383px;" id="el2crgl6idd4g" class="animable"></path><g id="elis45950bq3"><path d="M345.65,303.2c.05,7.63-2.14,40.61-2.14,40.61s-3.12,3.95-9.9,0L331.3,307Z" style="opacity: 0.5; transform-origin: 338.475px 324.383px;" class="animable"></path></g><path d="M325.85,372.42c.86-6.37,7.47-18.35,18.82-23.41s25.08-3.63,27.69-1.43,3.29,6.8-2.17,8.28-9.75,4-6.37,6.85,4.43,6.78-1.1,7.85-12.06-2.87-13.6.65,1.71,6.22-4.45,7.49-13.73-3.49-18,3.53Z" style="fill: rgb(0, 123, 255); transform-origin: 350.089px 363.901px;" id="elvyx0f50rx2b" class="animable"></path><path d="M326.22,377.24a.45.45,0,0,1-.16,0,.41.41,0,0,1-.22-.54c8.42-20,32.76-29,41.25-28.46a.42.42,0,0,1,.39.44.41.41,0,0,1-.44.39c-6.74-.41-31.67,7.18-40.44,27.95A.41.41,0,0,1,326.22,377.24Z" style="fill: rgb(255, 255, 255); transform-origin: 346.644px 362.732px;" id="elofpi94p91v" class="animable"></path><path d="M359.55,365a.51.51,0,0,1-.17,0c-.11-.06-11.54-5.12-22.1-2.75a.4.4,0,0,1-.49-.31.41.41,0,0,1,.31-.49c10.83-2.43,22.51,2.74,22.62,2.79a.41.41,0,0,1-.17.79Z" style="fill: rgb(255, 255, 255); transform-origin: 348.378px 362.916px;" id="el4xfuusmihbj" class="animable"></path><polygon points="265.65 272.39 229.88 293.04 314.84 342.09 341.67 326.6 350.61 321.44 265.65 272.39" style="fill: rgb(0, 123, 255); transform-origin: 290.245px 307.24px;" id="elo8pzpjngcoj" class="animable"></polygon><polygon points="350.61 321.44 350.61 326.61 323.78 342.1 323.77 336.93 350.61 321.44" style="fill: rgb(0, 123, 255); transform-origin: 337.19px 331.77px;" id="elio8efjgv3di" class="animable"></polygon><g id="elo3ynffatf4e"><polygon points="350.61 321.44 350.61 326.61 323.78 342.1 323.77 336.93 350.61 321.44" style="opacity: 0.2; transform-origin: 337.19px 331.77px;" class="animable"></polygon></g><path d="M269.48,298.21s31.33-9.46,36.77-10.95,15.9-4,18.95-2.63,4.6,2.95,4.88,7.36c.06.83,0,4.86,0,4.86s-15.14,4.68-27.54,4.68S269.48,298.21,269.48,298.21Z" style="fill: rgb(0, 123, 255); transform-origin: 299.793px 292.882px;" id="el2zagviyqi75" class="animable"></path><g id="el2vbgctg2p2n"><path d="M269.48,298.21s31.33-9.46,36.77-10.95,15.9-4,18.95-2.63,4.6,2.95,4.88,7.36c.06.83,0,4.86,0,4.86s-15.14,4.68-27.54,4.68S269.48,298.21,269.48,298.21Z" style="opacity: 0.6; transform-origin: 299.793px 292.882px;" class="animable"></path></g><polygon points="296.26 244.97 294.18 256.2 282.66 257.53 284.32 242.03 296.26 244.97" style="fill: rgb(255, 168, 167); transform-origin: 289.46px 249.78px;" id="elayewdw3nm9u" class="animable"></polygon><path d="M307,236s1.51,4.63,1.05,4.92a8.25,8.25,0,0,1-2.52.14Z" style="fill: rgb(242, 143, 143); transform-origin: 306.834px 238.55px;" id="elzrebcueqtt" class="animable"></path><path d="M304,221.15c2,2.09,3.87,5.58,3,14.43-.91,9.7-3.81,12.29-5,12.85-1.83.85-8-.63-10.06-2.12-2.52-1.86-7.28-6.5-8.52-12.21-1.46-6.72.41-14.36,5.32-15.91C295.7,216,302.36,219.38,304,221.15Z" style="fill: rgb(255, 168, 167); transform-origin: 295.078px 233.077px;" id="ellakyd34895" class="animable"></path><path d="M308.57,225.92c-1.18,2.22-3.4,7.75-9.71,9.31,0,0-.35-3.76-3.47-3.8s-4.18,3.81-2.63,6.49,3.5,2.07,3.5,2.07-.32,5.29-4.13,7.18c0,0-4.59,2.09-8.77-.58-1.88-1.2-4.06-6.41-5.18-10.59-2.38-8.84-1.95-15.61,3.67-17,1.18-3.71,3.09-4.9,6.62-5.13,7.62-.51,12.54,5.13,18.87,5.13C310.64,219,309.91,223.39,308.57,225.92Z" style="fill: rgb(38, 50, 56); transform-origin: 293.256px 230.893px;" id="elyc9iel57mi" class="animable"></path><path d="M282,219.64,278.18,218a2.07,2.07,0,1,1,3.81,1.63Z" style="fill: rgb(38, 50, 56); transform-origin: 280.169px 218.191px;" id="eluo7wm3lj9xp" class="animable"></path><path d="M269.56,294.44c0,6-.57,12.28,1.94,16.69s13.88,13.49,26.68,11.33c8.36-1.41,35.39-11.71,35.39-11.71s12-4.41,12.08-7.55c.08-4.64-.24-11.16-10.73-10.88-9.56.25-37.93,4.9-37.93,4.9Z" style="fill: rgb(0, 123, 255); transform-origin: 307.581px 307.549px;" id="el2ds3fq3etcs" class="animable"></path><g id="elx92umuphy7k"><path d="M269.56,294.44c0,6-.57,12.28,1.94,16.69s13.88,13.49,26.68,11.33c8.36-1.41,35.39-11.71,35.39-11.71s12-4.41,12.08-7.55c.08-4.64-.24-11.16-10.73-10.88-9.56.25-37.93,4.9-37.93,4.9Z" style="opacity: 0.5; transform-origin: 307.581px 307.549px;" class="animable"></path></g><path d="M271.79,255.54c1-3.14,5-6.56,9-5.82,7.33,1.36,15.35,3.74,17.47,4.36h0s-1,16.16,7.33,21l1.09,20.57s-2.05,4.09-5.21,6.11c-3.43,2.17-8.19,5.44-16.8,4.72a21.17,21.17,0,0,1-15.21-8.32s.1-19.44.43-28.14C270.19,262.68,271.08,257.7,271.79,255.54Z" style="fill: rgb(0, 123, 255); transform-origin: 288.07px 278.1px;" id="elzhm5brxt9se" class="animable"></path><g id="elyc0avx7uk2s"><path d="M271.79,255.54c1-3.14,5-6.56,9-5.82,7.33,1.36,15.35,3.74,17.47,4.36h0s-1,16.16,7.33,21l1.09,20.57s-2.05,4.09-5.21,6.11c-3.43,2.17-8.19,5.44-16.8,4.72a21.17,21.17,0,0,1-15.21-8.32s.1-19.44.43-28.14C270.19,262.68,271.08,257.7,271.79,255.54Z" style="opacity: 0.2; transform-origin: 288.07px 278.1px;" class="animable"></path></g><path d="M305.82,279.11s-4.33-4.49-5.85-9.7c0,0,0,7.62,5.94,11.74Z" style="fill: rgb(0, 123, 255); transform-origin: 302.94px 275.28px;" id="ellbye9m72fj" class="animable"></path><g id="el53vsn5toyf8"><path d="M305.82,279.11s-4.33-4.49-5.85-9.7c0,0,0,7.62,5.94,11.74Z" style="opacity: 0.4; transform-origin: 302.94px 275.28px;" class="animable"></path></g><path d="M334.29,264.35l4.65-6.68s1.11-1.61,1.52-2.28.69-2.91-.68-3.48c-2.48-1-7.64-3.47-9.15-3.48-.62,0-3.21,4.34-7.65,10.19-2.66,3.5-6.33,8.36-6.33,8.79s-.95.87,2.91,2.84a61.94,61.94,0,0,0,8.57,3.44Z" style="fill: rgb(0, 123, 255); transform-origin: 328.671px 261.06px;" id="eld1zyliju33u" class="animable"></path><g id="elus5j59wpfy"><path d="M334.29,264.35l4.65-6.68s1.11-1.61,1.52-2.28.69-2.91-.68-3.48c-2.48-1-7.64-3.47-9.15-3.48-.62,0-3.21,4.34-7.65,10.19-2.66,3.5-6.33,8.36-6.33,8.79s-.95.87,2.91,2.84a61.94,61.94,0,0,0,8.57,3.44Z" style="opacity: 0.6; transform-origin: 328.671px 261.06px;" class="animable"></path></g><path d="M337.25,257.1c-2.85,4.1-8.93,14.24-9.11,14.52s-9-3.53-11.37-4.56a1.15,1.15,0,0,0-.12.35c0,.42-.95.87,2.91,2.84a61.94,61.94,0,0,0,8.57,3.44l6.16-9.34,4.65-6.68s1.11-1.61,1.52-2.28.69-2.91-.68-3.48C340.05,252.05,340.09,253,337.25,257.1Z" style="fill: rgb(38, 50, 56); transform-origin: 328.671px 262.8px;" id="el3fmy1q7l3ja" class="animable"></path><polygon points="329.73 250.56 338.53 254.13 328.71 269.14 319.94 265.38 329.73 250.56" style="fill: rgb(0, 123, 255); transform-origin: 329.235px 259.85px;" id="el76b7rpzbcb" class="animable"></polygon><g id="el5eao0o4znqs"><polygon points="329.73 250.56 338.53 254.13 328.71 269.14 319.94 265.38 329.73 250.56" style="fill: rgb(255, 255, 255); opacity: 0.8; transform-origin: 329.235px 259.85px;" class="animable"></polygon></g><path d="M298.28,254.08c4.52,1.36,7.28,1.61,12.28,9.3s15.95,22.94,17,24.78c1.51,2.55,2.16,5.58.86,7.93-1.22,2.18-4.76,1.23-9.72-3.13-4.8-4.21-14.3-16.11-14.3-16.11A81.76,81.76,0,0,1,298.28,254.08Z" style="fill: rgb(255, 168, 167); transform-origin: 313.699px 275.649px;" id="elik2gg9qs0b" class="animable"></path><path d="M327.35,297.22c2.29-.66,5.74-9.17,8.38-18.82s4-11.8,4-14.84-.14-6.92-.14-6.92l-4.52,6.51a12.07,12.07,0,0,0-1.14-3.67c-.58-1.19-1.67-2.12-2.56-1.41-.48.38.78,2,.51,5.67a18.87,18.87,0,0,0,.27,4.37l-8.42,20.38Z" style="fill: rgb(255, 168, 167); transform-origin: 331.73px 276.93px;" id="elp2bh5vweruf" class="animable"></path><path d="M298.28,254.08a34.77,34.77,0,0,1,6.54,2.08,10.38,10.38,0,0,1,4.94,4.06c3.5,5.81,8.5,14.08,8.5,14.08s.86,7.2-7.89,9.72l-4.66-5a25.94,25.94,0,0,1-4.63-6.9C299.11,267.76,296.86,260.88,298.28,254.08Z" style="fill: rgb(0, 123, 255); transform-origin: 308.058px 269.05px;" id="elk7ciqetywp" class="animable"></path><g id="elh2ra29d9ebd"><path d="M298.28,254.08a34.77,34.77,0,0,1,6.54,2.08,10.38,10.38,0,0,1,4.94,4.06c3.5,5.81,8.5,14.08,8.5,14.08s.86,7.2-7.89,9.72l-4.66-5a25.94,25.94,0,0,1-4.63-6.9C299.11,267.76,296.86,260.88,298.28,254.08Z" style="opacity: 0.2; transform-origin: 308.058px 269.05px;" class="animable"></path></g><path d="M310.07,158.63l-93.31-53.87c-2.35-1.36-4.3-.52-4.69,1.85a10.65,10.65,0,0,1,4.69-7.36L220.64,97a10.53,10.53,0,0,1,9.53,0l93.32,53.87a9.89,9.89,0,0,1,3.37,3.56l-13.42,7.75A9.65,9.65,0,0,0,310.07,158.63Z" style="fill: rgb(55, 71, 79); transform-origin: 269.465px 129.02px;" id="el0u98m7npub3" class="animable"></path><path d="M328.25,380.48a10.51,10.51,0,0,1-4.77,8.25L319.6,391a10.67,10.67,0,0,1-8.72.38c2.25.85,4-.42,4-3.14V166.88a9.74,9.74,0,0,0-1.4-4.69l13.42-7.75a9.79,9.79,0,0,1,1.39,4.7Z" style="fill: rgb(38, 50, 56); transform-origin: 319.585px 273.286px;" id="elgausu2vsopf" class="animable"></path><path d="M310.07,158.63l-93.31-53.87c-2.63-1.52-4.76-.29-4.76,2.75V328.85a10.54,10.54,0,0,0,4.76,8.25L310.07,391c2.64,1.51,4.76.28,4.76-2.76V166.88A10.51,10.51,0,0,0,310.07,158.63Zm.29,198.23c0,1.83-1.27,2.57-2.86,1.65L219.33,307.6a6.3,6.3,0,0,1-2.87-5V138.87c0-1.83,1.28-2.57,2.87-1.65l3.51,2,84.66,48.89a6.29,6.29,0,0,1,2.86,5Z" style="fill: rgb(69, 90, 100); transform-origin: 263.415px 247.877px;" id="el5iw7zsdx11o" class="animable"></path><path d="M263.41,140.09a3.68,3.68,0,0,1,1.68,2.9c0,1.07-.75,1.51-1.68,1a3.7,3.7,0,0,1-1.67-2.9C261.74,140,262.49,139.55,263.41,140.09Z" style="fill: rgb(38, 50, 56); transform-origin: 263.415px 142.032px;" id="el8hv4df01jfm" class="animable"></path><path d="M263.41,340.92A14.65,14.65,0,0,1,270,352.39c0,4.22-3,5.94-6.62,3.82a14.64,14.64,0,0,1-6.62-11.46C256.79,340.52,259.76,338.81,263.41,340.92Z" style="fill: rgb(38, 50, 56); transform-origin: 263.38px 348.567px;" id="eloni10xs0qbk" class="animable"></path><path d="M279.25,157.13a7.42,7.42,0,0,1,3.36,5.8c0,2.14-1.51,3-3.36,1.94a7.42,7.42,0,0,1-3.35-5.81C275.9,156.92,277.4,156.06,279.25,157.13Z" style="fill: rgb(38, 50, 56); transform-origin: 279.255px 160.997px;" id="el5nd66peopol" class="animable"></path><path d="M271.05,156.4c0,1.43-1.06,2-2.38,1.21l-22.06-12.74a5.11,5.11,0,0,1-2.39-4c0-1.43,1.07-2,2.39-1.21l22.06,12.74A5.09,5.09,0,0,1,271.05,156.4Z" style="fill: rgb(38, 50, 56); transform-origin: 257.635px 148.635px;" id="elshgljno730m" class="animable"></path><path d="M229.88,143.31l-10.56-6.09c-1.58-.92-2.86-.18-2.86,1.65V302.65a6.32,6.32,0,0,0,2.86,5l10.56,6.1Z" style="fill: rgb(38, 50, 56); transform-origin: 223.17px 225.287px;" id="el6dn9n5dk2ya" class="animable"></path><g id="elt7i3fxxysk"><g style="opacity: 0.15; transform-origin: 266.6px 239.375px;" class="animable"><path d="M310.36,193.08V339.51L222.84,289V139.24l84.66,48.89A6.29,6.29,0,0,1,310.36,193.08Z" style="fill: rgb(255, 255, 255); transform-origin: 266.6px 239.375px;" id="elrej0nteiwe" class="animable"></path></g></g><path d="M223.39,140.2l83.84,48.41a5.81,5.81,0,0,1,2.58,4.47V338.56l-86.42-49.89V140.2m-.55-1V289l87.52,50.52V193.08a6.29,6.29,0,0,0-2.86-5l-84.66-48.89Z" style="fill: rgb(255, 255, 255); transform-origin: 266.6px 239.355px;" id="el8lpvrggrf2i" class="animable"></path><path d="M310.37,356.86V344.68l-80.49-46.47-12.58,7.25a5.8,5.8,0,0,0,2,2.14l88.19,50.91C309.08,359.43,310.37,358.69,310.37,356.86Z" style="fill: rgb(55, 71, 79); transform-origin: 263.835px 328.558px;" id="elntsxqrxq9z" class="animable"></path><polygon points="310.37 349.84 283.54 365.33 283.54 360.17 310.37 344.68 310.37 349.84" style="fill: rgb(0, 123, 255); transform-origin: 296.955px 355.005px;" id="elf34ii1efpkd" class="animable"></polygon><g id="el7q87vvkbrlu"><polygon points="310.37 349.84 283.54 365.33 283.54 360.17 310.37 344.68 310.37 349.84" style="opacity: 0.2; transform-origin: 296.955px 355.005px;" class="animable"></polygon></g><polygon points="198.58 311.12 283.54 360.17 283.54 365.33 198.58 316.28 198.58 311.12" style="fill: rgb(0, 123, 255); transform-origin: 241.06px 338.225px;" id="elcoxnbjir42k" class="animable"></polygon><g id="elshrt4p7r5o"><polygon points="198.58 311.12 283.54 360.17 283.54 365.33 198.58 316.28 198.58 311.12" style="opacity: 0.2; transform-origin: 241.06px 338.225px;" class="animable"></polygon></g><polygon points="229.88 293.04 198.58 311.12 283.54 360.17 310.37 344.68 310.37 339.51 229.88 293.04" style="fill: rgb(0, 123, 255); transform-origin: 254.475px 326.605px;" id="eletphj4e7ada" class="animable"></polygon><polygon points="229.88 293.04 198.58 311.12 283.54 360.17 310.37 344.68 310.37 339.51 229.88 293.04" style="fill: rgb(0, 123, 255); transform-origin: 254.475px 326.605px;" id="elafowxxdvnkd" class="animable"></polygon><path d="M230.66,252.2c-2.66,0-4.69.16-9.6,7.28-4.16,6-17.77,24.82-18.58,25.71s6.14,4.06,6.14,4.06L227,270.78Z" style="fill: rgb(255, 168, 167); transform-origin: 216.537px 270.725px;" id="elbz1tyzlnqul" class="animable"></path><path d="M205.24,283.67s1.46-.78,5.15-.75c2.29,0,3.72.16,4-.58.37-1.11,1.27-3.15,1.74-3.14v5.43Z" style="fill: rgb(242, 143, 143); transform-origin: 210.685px 281.915px;" id="elkormcuhgjjf" class="animable"></path><path d="M198.78,365.07c-6.15,8.12-10.95,10-12.63,11.76s-.71,5.23,3.4,6,8.56-.17,11.21-2.82,4.48-6.1,7.18-8,4.09-2.44,4.5-4.72-1.65-9.06-1.65-9.06Z" style="fill: rgb(38, 50, 56); transform-origin: 198.93px 370.66px;" id="elc9x6olkkouq" class="animable"></path><path d="M201.73,352.69c.57,2.95,1.21,5.53-.8,9.08a34.11,34.11,0,0,1-2.15,3.3c-3.59,4.83-6.51,8.6-7,9.26s2.53,2.76,6,1.32,6.46-6.58,8.72-9.68c1-1.38,2-2.63,2.78-3.6a6.83,6.83,0,0,0,1.54-4.59l-.19-4.71Z" style="fill: rgb(255, 168, 167); transform-origin: 201.276px 364.417px;" id="elle314jd1a7" class="animable"></path><path d="M213.75,376.61c-6.15,8.13-10.95,10-12.63,11.77s-.7,5.22,3.4,6,8.56-.18,11.21-2.82,4.48-6.11,7.19-8,4.09-2.45,4.49-4.73-1.64-9.06-1.64-9.06Z" style="fill: rgb(38, 50, 56); transform-origin: 213.9px 382.206px;" id="el5f69o9ursv6" class="animable"></path><path d="M216.7,364.23c.58,2.95,1.21,5.53-.8,9.08a31.82,31.82,0,0,1-2.15,3.3c-3.59,4.83-6.51,8.6-7,9.26s2.53,2.77,6,1.33,6.46-6.58,8.72-9.68c1-1.38,2-2.64,2.78-3.6a6.87,6.87,0,0,0,1.54-4.6l-.18-4.71Z" style="fill: rgb(255, 168, 167); transform-origin: 216.246px 375.961px;" id="elzwi5jhzve5a" class="animable"></path><path d="M256.8,292c4.71,9.68,2.85,19.27-9.88,25.55-7.11,3.51-20.87,9.71-20.87,9.71s2,5.5,2.07,14.77c.07,8.16-2.1,25.91-2.1,25.91s-5.32,2.47-9.13,0c0,0-1.69-11-3-22.09-1.59-13.93-2.93-22.12-2.22-25.12.63-2.65,6.17-6.53,10.4-9.5l-14.76,6.94s3.17,4.38,3.92,12.27c.91,9.54-.24,25.94-.24,25.94a11.37,11.37,0,0,1-9.12.38s-10.39-40.45-8.83-46.06c2.24-8.05,32.9-20.31,34.46-23.47Z" style="fill: rgb(0, 123, 255); transform-origin: 226.022px 328.134px;" id="elu7i61qhzm2f" class="animable"></path><g id="el8lql642moda"><path d="M256.8,292c4.71,9.68,2.85,19.27-9.88,25.55-7.11,3.51-20.87,9.71-20.87,9.71s2,5.5,2.07,14.77c.07,8.16-2.1,25.91-2.1,25.91s-5.32,2.47-9.13,0c0,0-1.69-11-3-22.09-1.59-13.93-2.93-22.12-2.22-25.12.63-2.65,6.17-6.53,10.4-9.5l-14.76,6.94s3.17,4.38,3.92,12.27c.91,9.54-.24,25.94-.24,25.94a11.37,11.37,0,0,1-9.12.38s-10.39-40.45-8.83-46.06c2.24-8.05,32.9-20.31,34.46-23.47Z" style="opacity: 0.2; transform-origin: 226.022px 328.134px;" class="animable"></path></g><path d="M246.34,252.22c9.6.9,11.13-.64,14,7.14l-8.8,22.43L256.8,292c-1.24,1.85-15.9,9.73-28.78.33a230.89,230.89,0,0,1-5.4-25c-1-7.09,5.28-14.91,8.39-15.22a27.25,27.25,0,0,1,3.38-.19Z" style="fill: rgb(0, 123, 255); transform-origin: 241.427px 274.385px;" id="el9f79jwmkrb" class="animable"></path><g id="elc5jserpugm"><path d="M246.34,252.22c9.6.9,11.13-.64,14,7.14l-8.8,22.43L256.8,292c-1.24,1.85-15.9,9.73-28.78.33a230.89,230.89,0,0,1-5.4-25c-1-7.09,5.28-14.91,8.39-15.22a27.25,27.25,0,0,1,3.38-.19Z" style="fill: rgb(255, 255, 255); opacity: 0.6; transform-origin: 241.427px 274.385px;" class="animable"></path></g><path d="M212.87,283.65c2,.06,1.92-1.22,2.42-2.47.59-1.47,1.13-2.78,1.13-2.78l1.32,4.76,1.81,8.82s-5.31-.07-9.21,0-8.33-1.23-8.78-4c-.28-1.72,1-4.13,5-4.51A41.18,41.18,0,0,1,212.87,283.65Z" style="fill: rgb(255, 168, 167); transform-origin: 210.537px 285.191px;" id="elc0165x2hf" class="animable"></path><path d="M216.63,272.39c-2,.7-1.48,4.05-.64,7.8s2.23,10.05,2.66,11.71,1,2.69,3.48,2.69,6.52.27,8.27,0,2-1.82,1.64-5.35a118.86,118.86,0,0,0-1.88-12c-.7-3.35-1.13-5.13-3.21-5.13C224.53,272.08,218.73,271.66,216.63,272.39Z" style="fill: rgb(38, 50, 56); transform-origin: 223.713px 283.336px;" id="eliqt1otfmkp" class="animable"></path><path d="M216.5,282.52c.2.88,2,1.61,3.64,1.68a33.35,33.35,0,0,0,7.09-.48c1.67-.45,2.73,2.43,1.12,5.06s-5.25,3.43-9.69,3.19a8.84,8.84,0,0,1-2.52-4.86A14,14,0,0,1,216.5,282.52Z" style="fill: rgb(255, 168, 167); transform-origin: 222.617px 287.265px;" id="elrddy6lte36b" class="animable"></path><path d="M251.58,281.79s-1,1.66-4.11,1.66c2.75-1.87,5.14-5.57,7.38-10Z" style="fill: rgb(0, 123, 255); transform-origin: 251.16px 278.45px;" id="elnozd7rnwazi" class="animable"></path><g id="elk4x30iitxir"><path d="M251.58,281.79s-1,1.66-4.11,1.66c2.75-1.87,5.14-5.57,7.38-10Z" style="fill: rgb(255, 255, 255); opacity: 0.1; transform-origin: 251.16px 278.45px;" class="animable"></path></g><path d="M255.93,253.23c5.3,1,7.51,6,7.67,15.8s-1.1,42.28-1.21,43.72A6.26,6.26,0,0,0,265,318.5c3.78,2.7,8.34,4.87,10.57,6.38,2.94,2,0,5.26-3.61,5.48-3.38.21-8.79-2.72-10.17-3.87a10.41,10.41,0,0,1,1.57,3c.59,2.3,0,3.65-1.06,3.17-.6-.27-1.33-1.18-3.4-3.71-3.59-4.41-4.36-6.39-4.4-11.87,0-3.71-.31-22.84-.61-30.12-.19-4.46-.15-14.15-.07-20.17S254.82,254.08,255.93,253.23Z" style="fill: rgb(255, 168, 167); transform-origin: 265.262px 292.993px;" id="elydr2f6z82k" class="animable"></path><path d="M223.08,234s-3.37-5.38-1-10.55,12.06-11.92,23.11-7.12c10.5,4.57,9.57,16.65,9.61,22.12C254.87,243.63,223.08,234,223.08,234Z" style="fill: rgb(38, 50, 56); transform-origin: 238.021px 227.334px;" id="elzqe4uzm61f" class="animable"></path><path d="M226.16,223.13c1.53-3,11.25-7.79,20.49-3.1s8.17,17.32,8.17,26v16c0,2.28-5.35,5.42-10.49,3.6l.37-23.37s1.44-14.27-3-17.69S226.16,223.13,226.16,223.13Z" style="fill: rgb(38, 50, 56); transform-origin: 240.509px 242.119px;" id="elas7ewnf5nqs" class="animable"></path><path d="M244.7,235.68c.6.36,1.46-.8,2.2-1.58s3.17-1.83,4.37.71-1.56,6.05-3.2,7.19a2.87,2.87,0,0,1-3.37.29l-.16,9.86s-2.43,5.34-8.25,6.13-4.63-4-2.72-6.37V248.3a13.85,13.85,0,0,1-4.43.22c-.76-.2-2.58-2.39-3.75-4.84-1.31-2.76-3.5-7.65-1.55-15.92,2.09-8.88,11.63-9.15,17.33-5.57S244.7,235.68,244.7,235.68Z" style="fill: rgb(255, 168, 167); transform-origin: 237.314px 239.202px;" id="eluxv41xagshc" class="animable"></path><path d="M233.58,248.3s5.4-1.09,7.28-2.09a6.17,6.17,0,0,0,2.61-2.58,8.42,8.42,0,0,1-1.48,3c-1.38,1.76-8.41,3.06-8.41,3.06Z" style="fill: rgb(242, 143, 143); transform-origin: 238.525px 246.66px;" id="el6zh5bde41yo" class="animable"></path><path d="M233.64,235.45a1.09,1.09,0,1,0,1.08-1.13A1.1,1.1,0,0,0,233.64,235.45Z" style="fill: rgb(38, 50, 56); transform-origin: 234.729px 235.41px;" id="el3oadk9h3uv8" class="animable"></path><path d="M234.79,231.36l2.31,1.28a1.39,1.39,0,0,0-.54-1.84A1.29,1.29,0,0,0,234.79,231.36Z" style="fill: rgb(38, 50, 56); transform-origin: 236.022px 231.642px;" id="elb20yvwj20ll" class="animable"></path><path d="M246.62,214.25l.63,3.82a2,2,0,0,0,1.63-2.29A1.9,1.9,0,0,0,246.62,214.25Z" style="fill: rgb(38, 50, 56); transform-origin: 247.763px 216.14px;" id="elgi7q7g5nq3i" class="animable"></path><path d="M251.24,216.14l-3.54,1.54a2,2,0,0,0,2.61,1A1.88,1.88,0,0,0,251.24,216.14Z" style="fill: rgb(38, 50, 56); transform-origin: 249.564px 217.492px;" id="elmij1alymdpa" class="animable"></path><path d="M234.38,242.13l-2.47.93a1.29,1.29,0,0,0,1.68.82A1.39,1.39,0,0,0,234.38,242.13Z" style="fill: rgb(242, 143, 143); transform-origin: 233.184px 243.046px;" id="elfexl3szy03" class="animable"></path><path d="M224,232.27l2.11-1.63a1.29,1.29,0,0,0-1.84-.28A1.4,1.4,0,0,0,224,232.27Z" style="fill: rgb(38, 50, 56); transform-origin: 224.925px 231.182px;" id="elk1ozruarzia" class="animable"></path><path d="M224.65,235.14a1.08,1.08,0,1,0,1.08-1.13A1.11,1.11,0,0,0,224.65,235.14Z" style="fill: rgb(38, 50, 56); transform-origin: 225.729px 235.09px;" id="el8kbzvh8m27k" class="animable"></path><polygon points="229.15 234.65 230.03 241.1 226.47 240.6 229.15 234.65" style="fill: rgb(242, 143, 143); transform-origin: 228.25px 237.875px;" id="el8l2kw2kbkvw" class="animable"></polygon><path d="M226.11,222.17s4.89,10.47,19.46,9c0,0,1.68-7.3-4.07-10.12S228.87,218.07,226.11,222.17Z" style="fill: rgb(38, 50, 56); transform-origin: 235.954px 225.157px;" id="elifl838q273m" class="animable"></path><path d="M241.16,229.86c1.71.22,2.21,2.83,1.79,5s1.64,2.35,3.25,0a12.93,12.93,0,0,0,1.71-5.9Z" style="fill: rgb(38, 50, 56); transform-origin: 244.535px 232.758px;" id="elqeumw1zs9mj" class="animable"></path><path d="M222.11,311.26s8.88-6,11.47-7.19c0,0-5-1-7.42-4.28a12,12,0,0,0,2.1,4.28L207.35,318.2Z" style="fill: rgb(0, 123, 255); transform-origin: 220.465px 308.995px;" id="elgskikuo9x3t" class="animable"></path><g id="el6l8tkbtjqdo"><path d="M222.11,311.26s8.88-6,11.47-7.19c0,0-5-1-7.42-4.28a12,12,0,0,0,2.1,4.28L207.35,318.2Z" style="opacity: 0.4; transform-origin: 220.465px 308.995px;" class="animable"></path></g></g><g id="freepik--speech-bubbles--inject-19" class="animable animator-active" style="transform-origin: 250px 192.381px;"><path d="M428.24,221.69l-61.36-35.42c-1.58-.91-2.86-.18-2.86,1.65v86.33a6.33,6.33,0,0,0,2.86,5l61.36,35.42c1.58.91,2.86.17,2.86-1.65V226.64A6.32,6.32,0,0,0,428.24,221.69Z" style="fill: rgb(224, 224, 224); transform-origin: 397.56px 250.469px;" id="el723bp4n2sil" class="animable"></path><path d="M349,258.55l19.49,11.26V254.32l-19.07,2.2C347.61,256.73,347.42,257.64,349,258.55Z" style="fill: rgb(224, 224, 224); transform-origin: 358.209px 262.065px;" id="el1kn27mi384v" class="animable"></path><path d="M375.35,204.06l44.42,25.65a5.09,5.09,0,0,1,2.38,4c0,1.42-1.06,2-2.38,1.2l-44.42-25.64a5.11,5.11,0,0,1-2.38-4C373,203.84,374,203.3,375.35,204.06Z" style="fill: rgb(240, 240, 240); transform-origin: 397.56px 219.494px;" id="eler5d9cmznkk" class="animable"></path><path d="M375.33,219.54l44.42,25.65a5.11,5.11,0,0,1,2.39,4c0,1.42-1.07,2-2.39,1.2l-44.42-25.64a5.14,5.14,0,0,1-2.38-4C373,219.32,374,218.78,375.33,219.54Z" style="fill: rgb(240, 240, 240); transform-origin: 397.545px 234.974px;" id="elvkkfnlxbkp" class="animable"></path><path d="M375.35,235l44.42,25.65a5.09,5.09,0,0,1,2.38,3.95c0,1.43-1.06,2-2.38,1.21L375.35,240.2a5.09,5.09,0,0,1-2.38-3.95C373,234.82,374,234.28,375.35,235Z" style="fill: rgb(240, 240, 240); transform-origin: 397.56px 250.425px;" id="elht3xiqc16i" class="animable"></path><path d="M375.35,250.53l44.42,25.64a5.11,5.11,0,0,1,2.38,4c0,1.43-1.06,2-2.38,1.21l-44.42-25.65a5.09,5.09,0,0,1-2.38-4C373,250.31,374,249.77,375.35,250.53Z" style="fill: rgb(240, 240, 240); transform-origin: 397.56px 265.961px;" id="elhstn32igfud" class="animable"></path><path d="M375.35,266l44.42,25.65a5.09,5.09,0,0,1,2.38,4c0,1.42-1.06,2-2.38,1.2l-44.42-25.64a5.11,5.11,0,0,1-2.38-4C373,265.8,374,265.26,375.35,266Z" style="fill: rgb(240, 240, 240); transform-origin: 397.56px 281.44px;" id="elcq4iiwzc04k" class="animable"></path><path d="M368.49,118.21v39.86a6.36,6.36,0,0,0,2.86,5l47.94,27.67c1.58.92,2.86.18,2.86-1.65V149.19a6.33,6.33,0,0,0-2.86-5l-47.94-27.67C369.78,115.65,368.49,116.38,368.49,118.21Z" style="fill: rgb(240, 240, 240); transform-origin: 395.32px 153.645px;" id="el50d91z408sy" class="animable"></path><path d="M354.37,136,373,138.15v15.49L353.56,138A1.1,1.1,0,0,1,354.37,136Z" style="fill: rgb(240, 240, 240); transform-origin: 363.032px 144.81px;" id="el99vb9r1ksor" class="animable"></path><path d="M422.15,138.14a14.82,14.82,0,0,1,6.71,11.62c0,4.28-3,6-6.71,3.87A14.84,14.84,0,0,1,415.44,142C415.44,137.74,418.45,136,422.15,138.14Z" style="fill: rgb(0, 123, 255); transform-origin: 422.15px 145.884px;" id="el7kf3gz436me" class="animable"></path><g id="elouxkav8z3c"><path d="M422.15,138.14a14.82,14.82,0,0,1,6.71,11.62c0,4.28-3,6-6.71,3.87A14.84,14.84,0,0,1,415.44,142C415.44,137.74,418.45,136,422.15,138.14Z" style="fill: rgb(255, 255, 255); opacity: 0.7; transform-origin: 422.15px 145.884px;" class="animable"></path></g><path d="M379.82,129.57l31,17.9a5.12,5.12,0,0,1,2.38,4c0,1.42-1.07,2-2.38,1.2l-31-17.9a5.12,5.12,0,0,1-2.38-4C377.44,129.35,378.51,128.81,379.82,129.57Z" style="fill: rgb(230, 230, 230); transform-origin: 395.32px 141.129px;" id="el92jc29gll75" class="animable"></path><path d="M379.82,142.1l31,17.9a5.12,5.12,0,0,1,2.38,4c0,1.42-1.07,2-2.38,1.2l-31-17.9a5.12,5.12,0,0,1-2.38-4C377.44,141.88,378.51,141.34,379.82,142.1Z" style="fill: rgb(230, 230, 230); transform-origin: 395.32px 153.659px;" id="elrvafs2rz95" class="animable"></path><path d="M379.82,154.63l31,17.9a5.12,5.12,0,0,1,2.38,4c0,1.42-1.07,2-2.38,1.2l-31-17.9a5.12,5.12,0,0,1-2.38-4C377.44,154.41,378.51,153.87,379.82,154.63Z" style="fill: rgb(230, 230, 230); transform-origin: 395.32px 166.189px;" id="eli5eux1r24u" class="animable"></path><path d="M177.83,170l-61.35-35.42c-1.58-.91-2.86-.17-2.86,1.65V222.6a6.32,6.32,0,0,0,2.86,5L177.83,263c1.58.91,2.86.17,2.86-1.65V175A6.32,6.32,0,0,0,177.83,170Z" style="fill: rgb(224, 224, 224); transform-origin: 147.155px 198.79px;" id="el4j23ml9wqy4" class="animable"></path><path d="M124.94,152.42l44.42,25.64a5.11,5.11,0,0,1,2.39,4c0,1.43-1.07,2-2.39,1.21l-44.42-25.65a5.12,5.12,0,0,1-2.38-4C122.56,152.2,123.63,151.66,124.94,152.42Z" style="fill: rgb(240, 240, 240); transform-origin: 147.155px 167.851px;" id="ele533p7ewwc6" class="animable"></path><path d="M124.93,167.9l44.42,25.64a5.12,5.12,0,0,1,2.38,4c0,1.43-1.07,2-2.38,1.2l-44.42-25.64a5.09,5.09,0,0,1-2.38-4C122.55,167.68,123.61,167.14,124.93,167.9Z" style="fill: rgb(240, 240, 240); transform-origin: 147.14px 183.33px;" id="el8n9iog6huz3" class="animable"></path><path d="M124.94,183.39,169.36,209a5.11,5.11,0,0,1,2.39,4c0,1.42-1.07,2-2.39,1.2l-44.42-25.64a5.14,5.14,0,0,1-2.38-4C122.56,183.17,123.63,182.63,124.94,183.39Z" style="fill: rgb(240, 240, 240); transform-origin: 147.155px 198.803px;" id="elzdgol1leo7" class="animable"></path><path d="M124.94,198.88l44.42,25.65a5.1,5.1,0,0,1,2.39,3.95c0,1.43-1.07,2-2.39,1.21L124.94,204a5.12,5.12,0,0,1-2.38-3.95C122.56,198.66,123.63,198.12,124.94,198.88Z" style="fill: rgb(240, 240, 240); transform-origin: 147.155px 214.291px;" id="elleyf7ai76ep" class="animable"></path><path d="M124.94,214.38,169.36,240a5.11,5.11,0,0,1,2.39,4c0,1.42-1.07,2-2.39,1.2l-44.42-25.64a5.12,5.12,0,0,1-2.38-4C122.56,214.16,123.63,213.62,124.94,214.38Z" style="fill: rgb(240, 240, 240); transform-origin: 147.155px 229.799px;" id="el1h17zihi5tc" class="animable"></path><path d="M176.22,251.73l17.45,10.07a1.09,1.09,0,0,0,1.4-1.61l-18.85-23.95Z" style="fill: rgb(224, 224, 224); transform-origin: 185.756px 249.089px;" id="elw44itpk7llr" class="animable"></path><path d="M68.9,249.88v39.86a6.33,6.33,0,0,0,2.86,5l47.94,27.67c1.58.91,2.86.18,2.86-1.65V280.86a6.33,6.33,0,0,0-2.86-5L71.76,248.23C70.18,247.31,68.9,248.05,68.9,249.88Z" style="fill: rgb(240, 240, 240); transform-origin: 95.73px 285.318px;" id="elas7j6lrkb0q" class="animable"></path><path d="M137.27,310.39l-19.18-19.93V306l18,6.25A1.11,1.11,0,0,0,137.27,310.39Z" style="fill: rgb(240, 240, 240); transform-origin: 127.882px 301.408px;" id="eln4w4veukms" class="animable"></path><path d="M122.56,269.81a14.82,14.82,0,0,1,6.71,11.62c0,4.27-3,6-6.71,3.87a14.84,14.84,0,0,1-6.71-11.62C115.85,269.4,118.86,267.67,122.56,269.81Z" style="fill: rgb(0, 123, 255); transform-origin: 122.56px 277.552px;" id="elokc3ppw6uji" class="animable"></path><g id="eltk8ym0qrrj"><path d="M122.56,269.81a14.82,14.82,0,0,1,6.71,11.62c0,4.27-3,6-6.71,3.87a14.84,14.84,0,0,1-6.71-11.62C115.85,269.4,118.86,267.67,122.56,269.81Z" style="fill: rgb(255, 255, 255); opacity: 0.7; transform-origin: 122.56px 277.552px;" class="animable"></path></g><path d="M80.23,261.24l31,17.9a5.12,5.12,0,0,1,2.38,4c0,1.42-1.07,2-2.39,1.2l-31-17.9a5.09,5.09,0,0,1-2.38-4C77.85,261,78.91,260.48,80.23,261.24Z" style="fill: rgb(230, 230, 230); transform-origin: 95.725px 272.797px;" id="el7t45z1mfsvu" class="animable"></path><path d="M80.23,273.77l31,17.9a5.12,5.12,0,0,1,2.38,4c0,1.42-1.07,2-2.39,1.2l-31-17.9a5.09,5.09,0,0,1-2.38-4C77.85,273.55,78.91,273,80.23,273.77Z" style="fill: rgb(230, 230, 230); transform-origin: 95.725px 285.327px;" id="elkfz9ak3emks" class="animable"></path><path d="M80.23,286.3l31,17.9a5.12,5.12,0,0,1,2.38,4c0,1.42-1.07,2-2.39,1.2l-31-17.9a5.09,5.09,0,0,1-2.38-4C77.85,286.08,78.91,285.54,80.23,286.3Z" style="fill: rgb(230, 230, 230); transform-origin: 95.725px 297.859px;" id="elqmfw7av06mo" class="animable"></path><path d="M104.67,64v39.86a6.32,6.32,0,0,0,2.86,5l47.94,27.68c1.58.91,2.86.17,2.86-1.66V95a6.32,6.32,0,0,0-2.86-5L107.53,62.35C106,61.44,104.67,62.18,104.67,64Z" style="fill: rgb(240, 240, 240); transform-origin: 131.5px 99.4449px;" id="el9jrwe5dq4u9" class="animable"></path><path d="M173,124.52l-19.18-19.94v15.49l18,6.25A1.1,1.1,0,0,0,173,124.52Z" style="fill: rgb(240, 240, 240); transform-origin: 163.57px 115.488px;" id="elb61ufflfihw" class="animable"></path><path d="M158.33,83.93A14.82,14.82,0,0,1,165,95.55c0,4.28-3,6-6.71,3.87a14.84,14.84,0,0,1-6.71-11.62C151.62,83.53,154.63,81.79,158.33,83.93Z" style="fill: rgb(0, 123, 255); transform-origin: 158.29px 91.6737px;" id="elm3qyvs7yurd" class="animable"></path><g id="el1pxh3jlo3yn"><path d="M158.33,83.93A14.82,14.82,0,0,1,165,95.55c0,4.28-3,6-6.71,3.87a14.84,14.84,0,0,1-6.71-11.62C151.62,83.53,154.63,81.79,158.33,83.93Z" style="fill: rgb(255, 255, 255); opacity: 0.7; transform-origin: 158.29px 91.6737px;" class="animable"></path></g><path d="M116,75.36l31,17.9a5.12,5.12,0,0,1,2.38,4c0,1.42-1.07,2-2.38,1.2l-31-17.9a5.09,5.09,0,0,1-2.38-4C113.62,75.14,114.68,74.6,116,75.36Z" style="fill: rgb(230, 230, 230); transform-origin: 131.5px 86.9188px;" id="elrrhc8isk4f" class="animable"></path><path d="M116,87.89l31,17.9a5.12,5.12,0,0,1,2.38,4c0,1.42-1.07,2-2.38,1.2l-31-17.9a5.09,5.09,0,0,1-2.38-4C113.62,87.67,114.68,87.13,116,87.89Z" style="fill: rgb(230, 230, 230); transform-origin: 131.5px 99.4488px;" id="elwyfj9ndy7ua" class="animable"></path><path d="M116,100.42l31,17.9a5.12,5.12,0,0,1,2.38,4c0,1.42-1.07,2-2.38,1.2l-31-17.9a5.09,5.09,0,0,1-2.38-4C113.62,100.2,114.68,99.66,116,100.42Z" style="fill: rgb(230, 230, 230); transform-origin: 131.5px 111.979px;" id="elguzsqahy8z" class="animable"></path></g><defs>     <filter id="active" height="200%">         <feMorphology in="SourceAlpha" result="DILATED" operator="dilate" radius="2"></feMorphology>                <feFlood flood-color="#32DFEC" flood-opacity="1" result="PINK"></feFlood>        <feComposite in="PINK" in2="DILATED" operator="in" result="OUTLINE"></feComposite>        <feMerge>            <feMergeNode in="OUTLINE"></feMergeNode>            <feMergeNode in="SourceGraphic"></feMergeNode>        </feMerge>    </filter>    <filter id="hover" height="200%">        <feMorphology in="SourceAlpha" result="DILATED" operator="dilate" radius="2"></feMorphology>                <feFlood flood-color="#ff0000" flood-opacity="0.5" result="PINK"></feFlood>        <feComposite in="PINK" in2="DILATED" operator="in" result="OUTLINE"></feComposite>        <feMerge>            <feMergeNode in="OUTLINE"></feMergeNode>            <feMergeNode in="SourceGraphic"></feMergeNode>        </feMerge>            <feColorMatrix type="matrix" values="0   0   0   0   0                0   1   0   0   0                0   0   0   0   0                0   0   0   1   0 "></feColorMatrix>    </filter></defs></svg>